<svg width="222" height="36" viewBox="0 0 222 36" fill="none" xmlns="http://www.w3.org/2000/svg">
<path d="M44.127 11.356H53.147V12.9134H50.1619V22.5823H47.0471V12.9134H44.127V11.356Z" fill="black"/>
<path d="M56.5867 19.4025H54.2506V20.9599C54.2506 21.2844 54.4453 21.479 54.8347 21.479H56.9112V22.5822H53.2123C52.823 22.5822 52.4985 22.4524 52.239 22.1928C51.9794 21.9333 51.8496 21.5439 51.8496 21.0897V16.677C51.8496 16.1579 51.9794 15.7685 52.3039 15.5089C52.6283 15.2494 53.0177 15.0547 53.4719 15.0547H56.8463V16.1579H54.7049C54.3804 16.1579 54.2506 16.4174 54.2506 16.8717V18.3642H56.5867V19.4025Z" fill="black"/>
<path d="M60.4152 19.3376L58.0791 15.0547H60.7397L61.9726 17.261L63.3354 15.0547H64.5683L62.4269 18.2344L64.8279 22.5822H62.1673L60.9344 20.3759L59.4418 22.5822H58.144L60.4152 19.3376Z" fill="black"/>
<path d="M69.1104 16.1579C68.8508 16.1579 68.6561 16.2228 68.4615 16.2877C68.3317 16.3526 68.2019 16.5473 68.2019 16.8068C68.2019 17.1313 68.721 17.4558 69.8242 17.7802C70.9274 18.1047 71.4465 18.8185 71.4465 19.9866C71.4465 20.8302 71.1869 21.4791 70.6678 21.9333C70.1487 22.3876 69.4997 22.6471 68.721 22.6471H66.1902V21.544H68.2668C68.6561 21.544 68.9157 21.4791 69.1104 21.4142C69.3051 21.2844 69.4348 21.0248 69.4348 20.6355C69.4348 20.311 68.8508 19.9866 67.6828 19.6621C66.5147 19.3376 65.9307 18.6238 65.9307 17.5206C65.9307 16.7419 66.1902 16.1579 66.6445 15.7686C67.0987 15.3792 67.7476 15.1196 68.4615 15.1196H70.7976V16.1579H69.1104Z" fill="black"/>
<path d="M72.3555 22.5822L74.2373 16.4823C74.3671 15.9631 74.5618 15.6387 74.7565 15.3791C75.0161 15.1195 75.3405 14.9897 75.8597 14.9897C76.249 14.9897 76.5735 15.1195 76.833 15.444C77.0277 15.6387 77.1575 15.9631 77.3522 16.4174L79.3638 22.5822H76.8979L76.4437 21.2194H73.9129L73.4586 22.5822H72.3555ZM74.2373 20.1811H76.1192L75.2107 17.0663L74.2373 20.1811Z" fill="black"/>
<path d="M83.4521 16.1579C83.1925 16.1579 82.9978 16.2228 82.8032 16.2877C82.6734 16.3526 82.5436 16.5473 82.5436 16.8068C82.5436 17.1313 83.0627 17.4558 84.1659 17.7802C85.2691 18.1047 85.7882 18.8185 85.7882 19.9866C85.7882 20.8302 85.5286 21.4791 85.0095 21.9333C84.4904 22.3876 83.8414 22.6471 83.0627 22.6471H80.4021V21.544H82.4787C82.8681 21.544 83.1276 21.4791 83.3223 21.4142C83.517 21.2844 83.6468 21.0248 83.6468 20.6355C83.6468 20.311 83.0627 19.9866 81.8947 19.6621C80.7266 19.3376 80.1426 18.6238 80.1426 17.5206C80.1426 16.7419 80.4022 16.1579 80.8564 15.7686C81.3106 15.3792 81.9596 15.1196 82.6734 15.1196H85.0095V16.1579H83.4521Z" fill="black"/>
<path d="M90.4609 22.5823V11.356H97.4693V12.9134H93.5758V16.0282H97.2746V17.5856H93.5758V21.0898H97.664V22.6472H90.4609V22.5823Z" fill="black"/>
<path d="M104.866 21.4141C104.866 21.8035 104.801 22.128 104.736 22.3226C104.607 22.5822 104.347 22.712 103.958 22.712C103.504 22.712 103.179 22.5173 102.919 22.0631L100.324 17.7802V22.5822H99.0908V16.4174C99.0908 16.0281 99.1557 15.7036 99.2855 15.5089C99.4802 15.1845 99.8695 15.0547 100.324 15.0547C100.648 15.0547 100.973 15.1196 101.167 15.3143C101.362 15.444 101.557 15.7036 101.751 16.0281L103.504 18.8833V15.0547H104.736V21.4141H104.866Z" fill="black"/>
<path d="M112.265 17.3907C111.94 16.8716 111.745 16.5471 111.551 16.4173C111.291 16.1578 110.902 16.028 110.512 16.028C110.123 16.028 109.734 16.2227 109.474 16.6769C109.15 17.196 108.955 17.9099 108.955 18.8183C108.955 19.7268 109.085 20.4407 109.28 20.8949C109.539 21.3492 109.928 21.6087 110.448 21.6087C110.707 21.6087 110.967 21.5438 111.226 21.414C111.421 21.2843 111.616 21.0896 111.745 20.8949V18.7535H114.211V25.9565H111.745V22.2576C111.551 22.3225 111.291 22.4523 110.967 22.5172C110.642 22.5821 110.383 22.5821 110.188 22.5821C109.02 22.5821 108.111 22.2576 107.398 21.6087C106.684 20.9598 106.359 20.0513 106.359 18.8832C106.359 17.7801 106.684 16.8067 107.333 16.028C107.982 15.2493 108.825 14.9248 109.928 14.9248C110.642 14.9248 111.291 15.0546 111.81 15.3791C112.265 15.6386 112.719 16.028 113.173 16.612L112.265 17.3907Z" fill="black"/>
<path d="M118.233 12.0698C118.233 12.3943 118.104 12.7187 117.844 12.9783C117.585 13.2379 117.325 13.3677 117.001 13.3677C116.676 13.3677 116.352 13.2379 116.157 12.9783C115.897 12.7187 115.768 12.3943 115.768 12.0698C115.768 11.7454 115.897 11.4209 116.157 11.1613C116.417 10.9018 116.676 10.772 117.001 10.772C117.325 10.772 117.649 10.9018 117.844 11.1613C118.104 11.356 118.233 11.6805 118.233 12.0698ZM115.832 15.0549H118.298V22.5824H115.832V15.0549Z" fill="black"/>
<path d="M125.697 21.4141C125.697 21.8035 125.632 22.128 125.568 22.3226C125.438 22.5822 125.178 22.712 124.789 22.712C124.335 22.712 124.01 22.5173 123.751 22.0631L121.155 17.7802V22.5822H119.922V16.4174C119.922 16.0281 119.987 15.7036 120.117 15.5089C120.311 15.1845 120.701 15.0547 121.155 15.0547C121.479 15.0547 121.804 15.1196 121.998 15.3143C122.193 15.444 122.388 15.7036 122.582 16.0281L124.335 18.8833V15.0547H125.568V21.4141H125.697Z" fill="black"/>
<path d="M131.861 19.4025H129.525V20.9599C129.525 21.2844 129.719 21.479 130.109 21.479H132.185V22.5822H128.421C128.032 22.5822 127.708 22.4524 127.448 22.1928C127.188 21.9333 127.059 21.5439 127.059 21.0897V16.677C127.059 16.1579 127.188 15.7685 127.513 15.5089C127.837 15.1845 128.227 15.0547 128.681 15.0547H132.055V16.1579H129.914C129.589 16.1579 129.46 16.4174 129.46 16.8717V18.3642H131.796V19.4025H131.861Z" fill="black"/>
<path d="M138.35 19.4025H136.014V20.9599C136.014 21.2844 136.209 21.479 136.598 21.479H138.675V22.5822H134.976C134.587 22.5822 134.262 22.4524 134.003 22.1928C133.743 21.9333 133.613 21.5439 133.613 21.0897V16.677C133.613 16.1579 133.743 15.7685 134.068 15.5089C134.392 15.1845 134.781 15.0547 135.236 15.0547H138.61V16.1579H136.469C136.144 16.1579 136.014 16.4174 136.014 16.8717V18.3642H138.35V19.4025Z" fill="black"/>
<path d="M139.973 15.0547H143.801C144.45 15.0547 145.034 15.2494 145.553 15.7036C146.008 16.093 146.267 16.677 146.267 17.3908C146.267 17.91 146.137 18.2993 145.943 18.6238C145.748 18.9482 145.359 19.1429 144.904 19.2727L147.046 22.5822H144.32L142.633 18.8833C143.087 18.8833 143.412 18.7536 143.607 18.494C143.801 18.2344 143.866 17.91 143.866 17.4557C143.866 17.0664 143.736 16.7419 143.542 16.4823C143.347 16.2228 143.023 16.093 142.698 16.093H142.439V22.5822H139.973V15.0547Z" fill="black"/>
<path d="M150.745 12.0698C150.745 12.3943 150.615 12.7187 150.356 12.9783C150.096 13.2379 149.837 13.3677 149.512 13.3677C149.188 13.3677 148.863 13.2379 148.669 12.9783C148.409 12.7187 148.279 12.3943 148.279 12.0698C148.279 11.7454 148.409 11.4209 148.669 11.1613C148.928 10.9018 149.188 10.772 149.512 10.772C149.837 10.772 150.096 10.9018 150.356 11.1613C150.615 11.356 150.745 11.6805 150.745 12.0698ZM148.279 15.0549H150.745V22.5824H148.279V15.0549Z" fill="black"/>
<path d="M158.208 21.4141C158.208 21.8035 158.143 22.128 158.078 22.3226C157.948 22.5822 157.689 22.712 157.3 22.712C156.845 22.712 156.521 22.5173 156.261 22.0631L153.666 17.7802V22.5822H152.433V16.4174C152.433 16.0281 152.498 15.7036 152.627 15.5089C152.822 15.1845 153.211 15.0547 153.666 15.0547C153.99 15.0547 154.315 15.1196 154.509 15.3143C154.704 15.444 154.899 15.7036 155.093 16.0281L156.845 18.8833V15.0547H158.078V21.4141H158.208Z" fill="black"/>
<path d="M165.54 17.3907C165.216 16.8716 165.021 16.5471 164.826 16.4173C164.567 16.1578 164.177 16.028 163.788 16.028C163.399 16.028 163.074 16.2227 162.75 16.6769C162.425 17.196 162.23 17.9099 162.23 18.8183C162.23 19.7268 162.36 20.4407 162.555 20.8949C162.814 21.3492 163.204 21.6087 163.723 21.6087C163.983 21.6087 164.242 21.5438 164.502 21.414C164.696 21.2843 164.891 21.0896 165.021 20.8949V18.7535H167.487V25.9565H165.021V22.2576C164.826 22.3225 164.567 22.4523 164.242 22.5172C163.918 22.5821 163.658 22.5821 163.463 22.5821C162.295 22.5821 161.387 22.2576 160.673 21.6087C159.959 20.9598 159.635 20.0513 159.635 18.8832C159.635 17.7801 159.959 16.8067 160.608 16.028C161.257 15.2493 162.101 14.9248 163.204 14.9248C163.918 14.9248 164.567 15.0546 165.086 15.3791C165.54 15.6386 165.994 16.028 166.448 16.612L165.54 17.3907Z" fill="black"/>
<path d="M181.634 14.6007C180.985 13.7571 180.596 13.238 180.336 13.0433C179.817 12.5891 179.168 12.3944 178.454 12.3944C177.416 12.3944 176.637 12.9135 176.118 13.8869C175.729 14.6656 175.534 15.639 175.534 16.872C175.534 18.1049 175.729 19.0783 176.118 19.857C176.637 20.8304 177.351 21.3495 178.454 21.3495C179.363 21.3495 180.077 21.1548 180.661 20.7006C181.115 20.3761 181.569 19.7921 181.958 18.9485L183.191 19.857C182.672 20.8953 182.023 21.674 181.18 22.1282C180.336 22.5825 179.298 22.8421 178.13 22.8421C176.378 22.8421 174.95 22.3229 173.847 21.1548C172.744 20.0517 172.225 18.624 172.225 16.872C172.225 15.1199 172.809 13.6922 173.912 12.5891C175.015 11.4859 176.443 10.9019 178.13 10.9019C179.298 10.9019 180.271 11.0965 180.985 11.4859C181.634 11.8752 182.283 12.5242 182.932 13.4327L181.634 14.6007Z" fill="black"/>
<path d="M187.733 14.9897C188.772 14.9897 189.68 15.3791 190.394 16.0929C191.108 16.8067 191.497 17.7152 191.497 18.8184C191.497 19.8567 191.108 20.7652 190.394 21.5439C189.68 22.2577 188.772 22.647 187.733 22.647C186.695 22.647 185.787 22.2577 185.073 21.5439C184.359 20.8301 183.97 19.9216 183.97 18.8184C183.97 17.7801 184.359 16.8716 185.073 16.0929C185.852 15.3791 186.695 14.9897 187.733 14.9897ZM187.733 21.8034C188.188 21.8034 188.512 21.479 188.707 20.895C188.837 20.4407 188.902 19.7918 188.902 18.8833C188.902 17.9748 188.837 17.261 188.707 16.8716C188.512 16.2876 188.188 15.9631 187.733 15.9631C187.279 15.9631 186.955 16.2876 186.76 16.8716C186.63 17.3259 186.565 17.9748 186.565 18.8833C186.565 19.7918 186.63 20.5056 186.76 20.895C186.955 21.479 187.279 21.8034 187.733 21.8034Z" fill="black"/>
<path d="M195.262 21.349C195.262 21.7384 195.132 22.0628 194.872 22.3224C194.613 22.582 194.288 22.7118 193.899 22.7118C193.51 22.7118 193.185 22.582 192.925 22.3224C192.666 22.0628 192.536 21.7384 192.536 21.349C192.536 20.9597 192.666 20.5703 192.925 20.3107C193.185 20.0512 193.51 19.9214 193.899 19.9214C194.288 19.9214 194.613 20.0512 194.872 20.3756C195.132 20.6352 195.262 20.9597 195.262 21.349Z" fill="black"/>
<path d="M200.518 11.356H203.632V21.0249H207.721V22.5823H200.582V11.356H200.518Z" fill="black"/>
<path d="M206.877 15.0547H213.172V16.3525H211.29V22.5822H208.824V16.3525H206.942V15.0547H206.877Z" fill="black"/>
<path d="M221.218 10.4472V22.5821H217.26C216.221 22.5821 215.443 22.2576 214.794 21.6736C214.145 21.0247 213.82 20.1811 213.82 19.013C213.82 17.7152 214.21 16.7418 214.988 16.028C215.767 15.379 216.74 14.9897 218.038 14.9897H218.817V10.3823H221.218V10.4472ZM218.752 16.0929H218.363C217.714 16.0929 217.195 16.2875 216.87 16.7418C216.546 17.1311 216.416 17.8449 216.416 18.8183C216.416 19.597 216.546 20.3109 216.87 20.7651C217.195 21.2842 217.649 21.5438 218.298 21.5438H218.752V16.0929Z" fill="black"/>
<path d="M32.7899 17.6509C32.7899 25.8273 26.106 32.5112 17.8647 32.5112C9.62336 32.5112 2.93945 25.8273 2.93945 17.6509C2.93945 9.47444 9.62336 2.79053 17.8647 2.79053C26.106 2.79053 32.7899 9.40955 32.7899 17.6509Z" fill="#008C44"/>
<path d="M32.2059 17.6508C32.2059 9.79885 25.7815 3.37451 17.8646 3.37451C9.94778 3.37451 3.52344 9.73396 3.52344 17.6508C3.52344 17.6508 3.52344 17.6508 3.52344 17.7157L32.2059 17.6508Z" fill="#ED1C24"/>
<path d="M3.26367 17.9103V17.7156C3.26367 17.7156 3.26367 17.7156 3.26367 17.6507C3.26367 9.66892 9.8178 3.17969 17.8644 3.17969C25.9111 3.17969 32.4652 9.66892 32.4652 17.6507V17.7156V17.9103H3.26367ZM32.011 17.456C31.8812 9.79871 25.6515 3.56904 17.8644 3.56904C10.1423 3.56904 3.8477 9.79871 3.71792 17.456H32.011Z" fill="#ED1C24"/>
<path d="M8.06659 15.3798L5.27622 14.666L5.01665 15.7692L4.43262 15.5745L5.21133 12.7192L5.79536 12.849L5.53579 13.9522L8.32616 14.666L8.06659 15.3798Z" fill="white"/>
<path d="M9.55912 11.8107L7.02832 9.47455L8.9102 7.46289L9.36444 7.85224L8.00171 9.34477L8.58574 9.86391L9.88358 8.50117L10.3378 8.89052L9.03998 10.2533L9.7538 10.9022L11.1814 9.34477L11.6357 9.73412L9.55912 11.8107Z" fill="white"/>
<path d="M12.9988 8.69593L13.6477 6.55448L12.0254 5.38642L12.869 5.12685L13.9073 5.84067L14.2966 4.60771L15.1402 4.34814L14.5562 6.29492L16.3732 7.59276L15.4647 7.91722L14.2966 7.07362L13.8424 8.43636L12.9988 8.69593Z" fill="white"/>
<path d="M18.1895 6.42459L18.9682 6.48948C18.9682 6.68416 19.0331 6.87884 19.1628 7.00862C19.2926 7.13841 19.4224 7.2033 19.682 7.26819C19.9415 7.33308 20.1362 7.26819 20.266 7.2033C20.3958 7.13841 20.4607 7.00862 20.5256 6.94373C20.5256 6.87884 20.5256 6.81395 20.4607 6.74905C20.3958 6.68416 20.3309 6.61927 20.2011 6.55437C20.1362 6.48948 19.9415 6.42459 19.6171 6.29481C19.2277 6.16502 18.9682 5.97034 18.8384 5.84056C18.6437 5.64588 18.5788 5.38631 18.6437 5.12674C18.6437 4.93207 18.7735 4.80228 18.9033 4.6725C19.0331 4.54271 19.2277 4.47782 19.4224 4.41293C19.6171 4.34803 19.8767 4.34803 20.2011 4.41293C20.6554 4.47782 20.9798 4.6725 21.2394 4.86717C21.4341 5.06185 21.499 5.38631 21.499 5.64588L20.7203 5.5161C20.7203 5.32142 20.6554 5.19164 20.5905 5.12674C20.5256 5.06185 20.3309 4.99696 20.1362 4.93207C19.9415 4.86717 19.7469 4.93207 19.6171 4.99696C19.5522 5.06185 19.4873 5.12674 19.4873 5.19164C19.4873 5.25653 19.4873 5.32142 19.5522 5.38631C19.6171 5.4512 19.8767 5.58099 20.2011 5.71077C20.5256 5.84056 20.7851 5.97035 20.9798 6.10013C21.1745 6.22991 21.2394 6.3597 21.3043 6.48948C21.3692 6.68416 21.3692 6.81395 21.3692 7.07352C21.3043 7.26819 21.2394 7.46287 21.1096 7.59265C20.9798 7.72244 20.7852 7.85222 20.5256 7.91712C20.266 7.98201 20.0064 7.98201 19.682 7.91712C19.2277 7.85222 18.8384 7.65755 18.6437 7.46287C18.2543 7.13841 18.1895 6.81395 18.1895 6.42459Z" fill="white"/>
<path d="M25.6526 11.0325L25.0037 10.5133L25.2632 9.66972L24.0952 8.69633L23.3813 9.08569L22.7324 8.56655L26.0419 6.81445L26.6909 7.33359L25.6526 11.0325ZM25.4579 9.15058L25.8473 7.85273L24.6792 8.50165L25.4579 9.15058Z" fill="white"/>
<path d="M27.6647 12.0703L27.9892 12.7193C27.7945 12.8491 27.6647 12.9788 27.6647 13.1735C27.5998 13.3682 27.6647 13.498 27.7296 13.7575C27.7945 13.9522 27.9243 14.1469 28.0541 14.2118C28.1839 14.2767 28.3137 14.2767 28.4434 14.2767C28.5083 14.2767 28.5732 14.2118 28.5732 14.1469C28.6381 14.082 28.6381 13.9522 28.6381 13.8224C28.6381 13.7575 28.5732 13.498 28.5732 13.1735C28.5083 12.7842 28.5083 12.4597 28.5732 12.265C28.6381 12.0055 28.8328 11.8108 29.0924 11.681C29.287 11.6161 29.4168 11.6161 29.6115 11.681C29.8062 11.7459 29.936 11.8108 30.1306 12.0055C30.2604 12.1352 30.3902 12.3948 30.52 12.6544C30.7147 13.1086 30.7147 13.4331 30.6498 13.7575C30.5849 14.082 30.3902 14.2767 30.0658 14.4065L29.6764 13.6278C29.8062 13.5629 29.936 13.4331 29.936 13.3033C30.0009 13.1735 29.936 13.0437 29.8711 12.7842C29.8062 12.5895 29.6764 12.4597 29.5466 12.3299C29.4817 12.265 29.3519 12.265 29.287 12.3299C29.2222 12.3299 29.1573 12.3948 29.1573 12.5246C29.0924 12.6544 29.1573 12.9139 29.2222 13.2384C29.287 13.6278 29.287 13.8873 29.287 14.082C29.287 14.2767 29.2222 14.4714 29.0924 14.6011C28.9626 14.7309 28.8328 14.8607 28.6381 14.9256C28.4434 14.9905 28.2488 14.9905 28.0541 14.9905C27.8594 14.9256 27.6647 14.8607 27.535 14.666C27.4052 14.4714 27.2105 14.2767 27.0807 13.9522C26.886 13.498 26.886 13.1086 26.9509 12.8491C27.0807 12.5246 27.3403 12.265 27.6647 12.0703Z" fill="white"/>
<path d="M4.10742 19.6626L7.15736 18.9487L7.74139 21.2849L7.22225 21.4146L6.8329 19.6626L6.18398 19.7923L6.57333 21.4146L6.05419 21.5444L5.66484 19.9221L4.82124 20.1168L5.27548 21.9338L4.69145 22.0636L4.10742 19.6626Z" fill="white"/>
<path d="M5.21094 23.3616L7.93642 21.8042L8.26088 22.3882L7.09281 24.5946L8.9098 23.5563L9.23426 24.0754L6.50878 25.6328L6.18432 25.0488L7.28749 22.9074L5.47051 23.9456L5.21094 23.3616Z" fill="white"/>
<path d="M9.36301 26.9954L9.75237 26.6061L10.7906 27.5795L9.94705 28.488C9.75237 28.488 9.55769 28.4231 9.29812 28.3582C9.03855 28.2284 8.77898 28.0986 8.58431 27.9039C8.32474 27.6444 8.13006 27.4497 8.06517 27.1252C8.00027 26.8657 7.93538 26.6061 8.06517 26.2816C8.13006 26.0221 8.25984 25.7625 8.51941 25.5678C8.71409 25.3082 8.97366 25.1785 9.29812 25.0487C9.55769 24.9838 9.88215 24.9838 10.1417 25.0487C10.3364 25.1136 10.596 25.2433 10.8555 25.438C11.18 25.6976 11.3098 25.9572 11.3747 26.2816C11.4396 26.5412 11.3747 26.8008 11.2449 27.0603L10.6609 26.7359C10.7258 26.6061 10.7258 26.4114 10.7258 26.2816C10.6609 26.1518 10.596 26.0221 10.4662 25.8923C10.2715 25.6976 10.0119 25.6327 9.75237 25.6327C9.4928 25.6327 9.23323 25.7625 9.03855 26.0221C8.77898 26.2816 8.6492 26.5412 8.6492 26.8008C8.6492 27.0603 8.77898 27.255 8.97366 27.4497C9.10344 27.5146 9.16834 27.6444 9.36301 27.6444C9.4928 27.7093 9.62258 27.7093 9.75237 27.7742L10.0119 27.4497L9.36301 26.9954Z" fill="white"/>
<path d="M10.6621 29.3964L12.2195 26.6709L12.8036 26.9954L11.2461 29.7208L10.6621 29.3964Z" fill="white"/>
<path d="M12.3486 30.3698L13.322 27.3848L13.9709 27.5794L14.6199 29.9805L15.2688 27.9688L15.8528 28.1635L14.8794 31.1485L14.2305 30.9538L13.5816 28.6177L12.9327 30.5645L12.3486 30.3698Z" fill="white"/>
<path d="M16.3721 31.3434L16.437 28.2285L18.9029 28.2934V28.8125L17.1508 28.7477V29.4615L18.838 29.5264V30.0455L17.2157 29.9806V30.8242L19.0327 30.8891V31.4082L16.3721 31.3434Z" fill="white"/>
<path d="M20.2006 31.278L19.4219 28.2281L21.758 27.644L21.8878 28.1632L20.2006 28.5525L20.3953 29.2015L22.0176 28.8121L22.1474 29.3312L20.525 29.7206L20.7197 30.5642L22.5367 30.11L22.6665 30.6291L20.2006 31.278Z" fill="white"/>
<path d="M23.8997 30.11L22.2773 27.4494L23.5103 26.7356C23.8348 26.5409 24.0294 26.476 24.2241 26.4112C24.4188 26.3463 24.5486 26.4112 24.6784 26.4761C24.8081 26.5409 24.9379 26.6707 25.0677 26.8005C25.1975 26.9952 25.1975 27.1899 25.1975 27.3845C25.1326 27.5792 25.0028 27.7739 24.8081 27.9686C25.0028 27.9686 25.1326 27.9686 25.2624 28.0335C25.3922 28.0984 25.5869 28.1633 25.8464 28.293L26.4953 28.6175L25.7815 29.0069L25.0028 28.6824C24.7433 28.5526 24.5486 28.4877 24.4837 28.4877C24.4188 28.4877 24.289 28.4877 24.2241 28.4877C24.1592 28.4877 24.0294 28.5526 23.8997 28.6175L23.7699 28.6824L24.4188 29.7856L23.8997 30.11ZM23.5103 28.2281L23.9645 27.9686C24.2241 27.7739 24.4188 27.709 24.4837 27.6441C24.5486 27.5792 24.5486 27.5143 24.5486 27.4494C24.5486 27.3845 24.5486 27.3197 24.4837 27.1899C24.4188 27.125 24.3539 27.0601 24.289 26.9952C24.2241 26.9952 24.0943 26.9952 24.0294 26.9952C23.9645 26.9952 23.8348 27.125 23.5752 27.2548L23.1209 27.5143L23.5103 28.2281Z" fill="white"/>
<path d="M27.0789 27.9042L24.9375 25.633L25.4566 25.1787L27.5981 27.4499L27.0789 27.9042Z" fill="white"/>
<path d="M28.4414 26.541L25.8457 24.724L26.2351 24.2048L28.7659 24.2697L27.0138 23.1017L27.3382 22.5825L29.9339 24.3995L29.5446 24.9186H27.1436L28.8308 26.0867L28.4414 26.541Z" fill="white"/>
<path d="M29.9995 21.2849L29.4803 21.1551L29.8697 19.7923L31.1026 20.1817C31.1675 20.3764 31.2324 20.571 31.2324 20.8306C31.2324 21.0902 31.2324 21.3498 31.1675 21.6093C31.0378 21.9338 30.908 22.1934 30.7133 22.388C30.5186 22.5827 30.259 22.7125 29.9995 22.7774C29.7399 22.8423 29.4154 22.7774 29.1559 22.7125C28.8314 22.6476 28.5718 22.4529 28.3772 22.2582C28.1825 22.0636 28.0527 21.804 27.9878 21.4795C27.9229 21.22 27.9878 20.9604 28.0527 20.7008C28.1825 20.3115 28.3772 20.0519 28.5718 19.8572C28.7665 19.6625 29.0261 19.5977 29.3506 19.5977L29.2857 20.2466C29.1559 20.2466 28.9612 20.3115 28.8314 20.3764C28.7016 20.4413 28.6367 20.6359 28.5718 20.7657C28.507 21.0253 28.507 21.2849 28.6367 21.4795C28.7665 21.6742 28.9612 21.8689 29.2857 21.9338C29.675 22.0636 29.9346 22.0636 30.1942 21.9338C30.4537 21.804 30.5835 21.6093 30.6484 21.3498C30.7133 21.22 30.7133 21.0902 30.7133 20.8955C30.7133 20.7657 30.6484 20.6359 30.6484 20.5062L30.259 20.3764L29.9995 21.2849Z" fill="white"/>
<path d="M3.32812 17.9751V17.3911H32.4648V17.9751H3.32812Z" fill="white"/>
<path d="M19.6166 0H16.2422V3.11483H19.6166V0Z" fill="black"/>
<path d="M13.5816 3.69848L10.4668 5.06121L9.16895 2.14106L12.2838 0.77832L13.5816 3.69848Z" fill="black"/>
<path d="M8.26068 6.6185L5.98945 9.08441L3.65332 6.94296L5.92455 4.47705L8.26068 6.6185Z" fill="black"/>
<path d="M4.56239 11.4211L3.52411 14.6008L0.539062 13.5625L1.57734 10.3828L4.56239 11.4211Z" fill="black"/>
<path d="M3.10144 17.2587L0 17.5474L0.312735 20.9073L3.41417 20.6186L3.10144 17.2587Z" fill="black"/>
<path d="M4.2372 23.1665L5.9244 26.1516L3.13403 27.6441L1.51172 24.7239L4.2372 23.1665Z" fill="black"/>
<path d="M7.6768 28.1631L10.4023 30.1747L8.45551 32.7056L5.79492 30.6939L7.6768 28.1631Z" fill="black"/>
<path d="M12.8037 31.3433L16.1132 32.122L15.3994 35.1719L12.0898 34.3932L12.8037 31.3433Z" fill="black"/>
<path d="M18.8379 32.2515L22.1474 31.6025L22.7314 34.6525L19.4219 35.3014L18.8379 32.2515Z" fill="black"/>
<path d="M24.6787 30.564L27.4691 28.6821L29.2212 31.2778L26.4308 33.1597L24.6787 30.564Z" fill="black"/>
<path d="M29.3506 26.7356L31.1027 23.8804L33.8282 25.5676L32.0112 28.4228L29.3506 26.7356Z" fill="black"/>
<path d="M32.0762 21.3495L32.5304 18.04L35.6453 18.4943L35.191 21.8038L32.0762 21.3495Z" fill="black"/>
<path d="M32.4011 15.3148L31.4277 12.1351L34.4777 11.2266L35.3862 14.4712L32.4011 15.3148Z" fill="black"/>
<path d="M30.1942 9.73382L28.0527 7.13813L30.4537 5.12646L32.6601 7.72216L30.1942 9.73382Z" fill="black"/>
<path d="M25.9108 5.45082L22.9258 3.95829L24.2885 1.10303L27.3385 2.66044L25.9108 5.45082Z" fill="black"/>
<path d="M27.4689 17.6505C27.4689 22.9068 23.186 27.1897 17.8648 27.1897C12.6085 27.1897 8.26074 22.9068 8.26074 17.6505C8.26074 12.3942 12.5436 8.11133 17.8648 8.11133C23.1211 8.11133 27.4689 12.3942 27.4689 17.6505Z" fill="#FFFAC2"/>
<path d="M16.1123 22.647V22.4523C16.5017 22.4523 16.7612 22.3874 16.891 22.3225C17.0208 22.2576 17.0857 22.063 17.0857 21.8034V17.7152C17.0857 17.4556 17.0208 17.2609 16.891 17.196C16.7612 17.1312 16.5017 17.0663 16.1123 17.0663V16.8716H18.8378H22.4069V17.7152V18.5588H22.1473C22.0824 18.0396 21.8228 17.6503 21.4984 17.4556C21.1739 17.2609 20.5899 17.1312 19.8761 17.1312H19.3569C19.1622 17.1312 19.0325 17.196 18.9027 17.2609C18.8378 17.3258 18.7729 17.4556 18.7729 17.5854V19.5322H18.9676C19.4867 19.5322 19.8112 19.4024 20.0707 19.2077C20.3303 19.013 20.4601 18.6886 20.525 18.2343H20.7846V19.662V21.0896H20.525C20.4601 20.6353 20.2654 20.246 20.0707 20.0513C19.8112 19.8566 19.4867 19.7268 18.9676 19.7268H18.7729V21.8034C18.7729 21.9981 18.8378 22.1279 18.9027 22.1928C19.0325 22.2576 19.1622 22.3225 19.3569 22.3225H19.6165C20.3952 22.3225 20.9792 22.1928 21.4335 21.9981C21.8877 21.7385 22.2771 21.3492 22.5366 20.83H22.8611L22.6664 21.7385L22.4718 22.647H18.8378H16.1123Z" fill="black"/>
<path d="M18.8382 22.7767H16.1127V22.7118H16.1776H16.1127V22.7767H16.0479V22.7118V22.5172C16.0479 22.4523 16.1127 22.4523 16.1127 22.4523C16.5021 22.4523 16.7617 22.3874 16.8266 22.3225C16.8915 22.2576 16.9563 22.1278 16.9563 21.8682V17.78C16.9563 17.5205 16.8915 17.3907 16.8266 17.3258C16.7617 17.2609 16.5021 17.196 16.1127 17.196C16.0479 17.196 16.0479 17.1311 16.0479 17.1311V16.8715V16.8066H16.1127H18.8382H22.4073H22.4722V16.8715V17.7151V18.5587V18.6236H22.4073H22.1477C22.0828 18.6236 22.0828 18.6236 22.0828 18.5587C22.0179 18.0396 21.8233 17.7151 21.4988 17.5205C21.1743 17.3258 20.6552 17.196 19.8765 17.196H19.3574C19.1627 17.196 19.0329 17.2609 18.968 17.2609C18.9031 17.3258 18.9031 17.3907 18.9031 17.5205V19.4672H18.968C19.4871 19.4672 19.8116 19.4023 20.0063 19.2077C20.201 19.013 20.3956 18.7534 20.4605 18.2992C20.4605 18.2343 20.5254 18.2343 20.5254 18.2343H20.785H20.8499V18.2992V19.7268V21.1544V21.2193H20.785H20.5254C20.4605 21.2193 20.4605 21.2193 20.4605 21.1544C20.3956 20.7002 20.2659 20.3757 20.0063 20.181C19.8116 19.9864 19.4223 19.9215 18.968 19.9215H18.9031V21.8682C18.9031 21.998 18.968 22.1278 19.0329 22.1927C19.0978 22.2576 19.2276 22.3225 19.4871 22.3225H19.7467C20.5254 22.3225 21.1095 22.1927 21.4988 21.998C21.9531 21.8034 22.2775 21.414 22.5371 20.8949L22.602 20.83H22.9264C22.9264 20.83 22.9913 20.83 22.9913 20.8949V20.9598L22.7967 21.8682L22.5371 22.7118C22.5371 22.7767 22.4722 22.7767 22.4722 22.7767H18.8382ZM18.8382 22.5821H22.4073L22.602 21.7385L22.7967 20.9598H22.6669C22.4073 21.4789 22.0179 21.8682 21.5637 22.1278C21.1095 22.3874 20.4605 22.4523 19.6818 22.5172H19.4223C19.1627 22.5172 19.0329 22.4523 18.9031 22.3874C18.7733 22.2576 18.7084 22.0629 18.7084 21.8682V19.7917V19.7268H18.7733H18.968C19.4871 19.7268 19.8765 19.8566 20.1361 20.0513C20.3956 20.2459 20.5254 20.5704 20.6552 21.0246H20.785V19.6619V18.2992H20.6552C20.5903 18.7534 20.3956 19.0779 20.1361 19.2725C19.8765 19.4672 19.4871 19.597 18.968 19.597H18.7733H18.7084V19.5321V17.5853C18.7084 17.3907 18.7733 17.2609 18.8382 17.196C18.968 17.1311 19.0978 17.0662 19.3574 17.0662H19.8116C20.5903 17.0662 21.1095 17.196 21.4988 17.3907C21.8882 17.5853 22.0828 17.9747 22.1477 18.4938H22.2775V17.7151V16.9364H18.7733H16.1127V17.0013C16.4372 17.0013 16.6968 17.0662 16.8266 17.196C16.9563 17.3258 17.0212 17.5205 17.0212 17.78V21.8682C17.0212 22.1278 16.9563 22.3225 16.8266 22.4523C16.6968 22.5172 16.4372 22.5821 16.1127 22.647V22.7118H18.8382V22.5821Z" fill="black"/>
<path d="M16.8267 22.3231V13.6924H16.7619C15.6587 13.6924 14.4906 13.8871 13.9715 14.3413C13.4523 14.7956 13.1279 15.185 12.9981 16.2232L12.4141 15.8988L12.479 14.2116V12.4595H17.9299H23.3809V14.1467L23.4458 15.8988L22.7968 16.2232C22.6671 15.185 22.3426 14.7956 21.8235 14.3413C21.3043 13.8871 20.0714 13.6924 19.0331 13.6924H18.9682V22.3231C18.9682 22.8423 19.3575 23.2316 19.5522 23.3614C19.7469 23.5561 19.7469 23.5561 20.5256 23.621V24.4646H17.9299H15.3342V23.621C15.9182 23.4912 15.9831 23.4912 16.1778 23.3614C16.3725 23.1667 16.8267 22.7774 16.8267 22.3231Z" fill="black"/>
<path d="M15.983 21.6092V12.9786H15.9181C14.8149 12.9786 13.6469 13.1732 13.1277 13.6275C12.6086 14.0817 12.2841 14.4711 12.1543 15.5094L11.5703 15.1849L11.6352 13.4977V11.7456H17.0862H22.5371V13.4328L22.602 15.1849L21.9531 15.5094C21.8233 14.4711 21.4988 14.0817 20.9797 13.6275C20.4606 13.1732 19.2276 12.9786 18.1893 12.9786H18.1244V21.6092C18.1244 22.1284 18.5138 22.5177 18.7085 22.6475C18.9031 22.8422 18.9031 22.8422 19.6819 22.9071V23.7507H17.0862H14.4905V22.9071C15.0745 22.7773 15.1394 22.7773 15.3341 22.6475C15.5287 22.4528 15.983 22.0635 15.983 21.6092Z" fill="#ED1C24"/>
<path d="M17.0856 23.8804H14.425V22.8421H14.4899C15.074 22.6475 15.1389 22.7124 15.3335 22.5826C15.5282 22.3879 15.9825 22.0634 15.9825 21.6092V13.0434C14.9442 13.0434 13.7112 13.303 13.257 13.6923C12.7378 14.1466 12.4783 14.5359 12.2836 15.5093V15.6391L11.5049 15.1849L11.5698 13.4328V11.6807H17.1505H22.6015V13.4976L22.6664 15.3146L21.8877 15.7689V15.6391C21.7579 14.6008 21.4334 14.2115 20.9143 13.8221C20.46 13.4328 19.2271 13.1732 18.1888 13.1732V21.739C18.1888 22.1932 18.5133 22.5826 18.7728 22.7124C19.0324 22.907 18.9026 22.907 19.6813 22.9719H19.7462V24.0102H17.0856V23.8804ZM14.5548 23.6858H17.0856H19.5515V23.0368C18.9026 22.9719 18.8377 22.907 18.643 22.7773C18.3835 22.5826 17.9941 22.1932 17.9941 21.6092V12.8487H18.059H18.1239C19.2271 12.8487 20.46 13.0434 20.9792 13.5625C21.4983 14.0168 21.8228 14.4061 21.9526 15.3795L22.3419 15.12L22.277 13.4328V11.8104H16.9558H11.5698V13.4328L11.5049 15.12L11.8942 15.3795C12.024 14.4061 12.4134 14.0168 12.8676 13.5625C13.4517 13.1083 14.6197 12.8487 15.7229 12.8487H16.1122V21.6092C16.1122 22.1932 15.658 22.5826 15.3984 22.7124C15.1389 22.907 15.074 22.8422 14.5548 22.9719V23.6858Z" fill="white"/>
<path d="M2.41992 17.6505C2.41992 9.14958 9.3634 2.271 17.8643 2.271C26.4301 2.271 33.3087 9.14958 33.3087 17.6505C33.3087 26.1514 26.3652 33.03 17.8643 33.03C9.29851 33.03 2.41992 26.1514 2.41992 17.6505ZM3.39331 17.6505C3.39331 25.5674 9.88254 31.9917 17.8643 31.9917C25.8461 31.9917 32.2704 25.5674 32.3353 17.6505C32.3353 9.73362 25.8461 3.30927 17.8643 3.30927C9.88254 3.30927 3.39331 9.73362 3.39331 17.6505Z" fill="black"/>
</svg>
