<svg width="264" height="43" viewBox="0 0 264 43" fill="none" xmlns="http://www.w3.org/2000/svg">
<path d="M52.6602 13.5526H63.4246V15.4112H59.8623V26.9501H56.145V15.4112H52.6602V13.5526Z" fill="white"/>
<path d="M67.5292 23.1555H64.7413V25.0141C64.7413 25.4014 64.9737 25.6337 65.4383 25.6337H67.9165V26.9502H63.5023C63.0376 26.9502 62.6504 26.7953 62.3406 26.4855C62.0309 26.1758 61.876 25.7111 61.876 25.169V19.903C61.876 19.2834 62.0309 18.8188 62.4181 18.509C62.8053 18.1992 63.2699 17.9669 63.812 17.9669H67.839V19.2834H65.2834C64.8962 19.2834 64.7413 19.5932 64.7413 20.1353V21.9165H67.5292V23.1555Z" fill="white"/>
<path d="M72.0985 23.0781L69.3105 17.9669H72.4857L73.9571 20.6L75.5834 17.9669H77.0548L74.4992 21.7616L77.3645 26.9502H74.1894L72.718 24.3172L70.9368 26.9502H69.388L72.0985 23.0781Z" fill="white"/>
<path d="M82.4753 19.2833C82.1656 19.2833 81.9332 19.3607 81.7009 19.4381C81.546 19.5156 81.3911 19.7479 81.3911 20.0577C81.3911 20.4449 82.0107 20.8321 83.3272 21.2193C84.6437 21.6065 85.2632 22.4584 85.2632 23.8523C85.2632 24.8591 84.9535 25.6335 84.3339 26.1756C83.7144 26.7177 82.94 27.0275 82.0107 27.0275H78.9904V25.711H81.4686C81.9332 25.711 82.243 25.6335 82.4753 25.5561C82.7076 25.4012 82.8625 25.0914 82.8625 24.6268C82.8625 24.2396 82.1656 23.8523 80.7716 23.4651C79.3776 23.0779 78.6807 22.2261 78.6807 20.9095C78.6807 19.9802 78.9904 19.2833 79.5325 18.8186C80.0746 18.354 80.849 18.0442 81.7009 18.0442H84.4888V19.2833H82.4753Z" fill="white"/>
<path d="M86.3467 26.9502L88.5925 19.6707C88.7474 19.0512 88.9797 18.6639 89.212 18.3542C89.5218 18.0444 89.909 17.8895 90.5285 17.8895C90.9932 17.8895 91.3804 18.0444 91.6902 18.4316C91.9225 18.6639 92.0774 19.0512 92.3097 19.5933L94.7104 26.9502H91.7676L91.2255 25.324H88.2053L87.6632 26.9502H86.3467ZM88.5925 24.0849H90.8383L89.7541 20.3677L88.5925 24.0849Z" fill="white"/>
<path d="M99.5902 19.2833C99.2804 19.2833 99.0481 19.3607 98.8158 19.4381C98.6609 19.5156 98.506 19.7479 98.506 20.0577C98.506 20.4449 99.1255 20.8321 100.442 21.2193C101.759 21.6065 102.378 22.4584 102.378 23.8523C102.378 24.8591 102.068 25.6335 101.449 26.1756C100.829 26.7177 100.055 27.0275 99.1255 27.0275H95.9504V25.711H98.4285C98.8932 25.711 99.203 25.6335 99.4353 25.5561C99.6676 25.4012 99.8225 25.0914 99.8225 24.6268C99.8225 24.2396 99.1255 23.8523 97.7316 23.4651C96.3376 23.0779 95.6406 22.2261 95.6406 20.9095C95.6406 19.9802 95.9504 19.2833 96.4925 18.8186C97.0346 18.354 97.809 18.0442 98.6609 18.0442H101.449V19.2833H99.5902Z" fill="white"/>
<path d="M107.953 26.9501V13.5526H116.317V15.4112H111.67V19.1284H116.085V20.9871H111.67V25.1689H116.549V27.0275H107.953V26.9501Z" fill="white"/>
<path d="M125.145 25.5562C125.145 26.0209 125.068 26.4081 124.99 26.6404C124.836 26.9502 124.526 27.1051 124.061 27.1051C123.519 27.1051 123.132 26.8728 122.822 26.3307L119.724 21.2195V26.9502H118.253V19.5932C118.253 19.1286 118.33 18.7413 118.485 18.509C118.718 18.1218 119.182 17.9669 119.724 17.9669C120.112 17.9669 120.499 18.0444 120.731 18.2767C120.963 18.4316 121.196 18.7413 121.428 19.1285L123.519 22.536V17.9669H124.99V25.5562H125.145Z" fill="white"/>
<path d="M133.975 20.7548C133.588 20.1353 133.355 19.7481 133.123 19.5932C132.813 19.2834 132.349 19.1285 131.884 19.1285C131.419 19.1285 130.955 19.3609 130.645 19.9029C130.258 20.5225 130.025 21.3743 130.025 22.4585C130.025 23.5427 130.18 24.3946 130.413 24.9367C130.722 25.4788 131.187 25.7885 131.807 25.7885C132.116 25.7885 132.426 25.7111 132.736 25.5562C132.968 25.4013 133.201 25.169 133.355 24.9367V22.3811H136.298V30.9772H133.355V26.563C133.123 26.6404 132.813 26.7953 132.426 26.8727C132.039 26.9502 131.729 26.9502 131.497 26.9502C130.103 26.9502 129.019 26.563 128.167 25.7885C127.315 25.0141 126.928 23.9299 126.928 22.536C126.928 21.2195 127.315 20.0578 128.089 19.1285C128.864 18.1992 129.871 17.812 131.187 17.812C132.039 17.812 132.813 17.9669 133.433 18.3541C133.975 18.6639 134.517 19.1285 135.059 19.8255L133.975 20.7548Z" fill="white"/>
<path d="M141.099 14.4044C141.099 14.7916 140.944 15.1789 140.634 15.4886C140.325 15.7984 140.015 15.9533 139.628 15.9533C139.24 15.9533 138.853 15.7984 138.621 15.4886C138.311 15.1789 138.156 14.7916 138.156 14.4044C138.156 14.0172 138.311 13.63 138.621 13.3202C138.931 13.0105 139.24 12.8556 139.628 12.8556C140.015 12.8556 140.402 13.0105 140.634 13.3202C140.944 13.5526 141.099 13.9398 141.099 14.4044ZM138.234 17.9668H141.176V26.95H138.234V17.9668Z" fill="white"/>
<path d="M150.005 25.5562C150.005 26.0209 149.927 26.4081 149.85 26.6404C149.695 26.9502 149.385 27.1051 148.92 27.1051C148.378 27.1051 147.991 26.8728 147.681 26.3307L144.584 21.2195V26.9502H143.112V19.5932C143.112 19.1286 143.19 18.7413 143.345 18.509C143.577 18.1218 144.042 17.9669 144.584 17.9669C144.971 17.9669 145.358 18.0444 145.59 18.2767C145.823 18.4316 146.055 18.7413 146.287 19.1285L148.378 22.536V17.9669H149.85V25.5562H150.005Z" fill="white"/>
<path d="M157.363 23.1555H154.575V25.0141C154.575 25.4014 154.807 25.6337 155.272 25.6337H157.75V26.9502H153.258C152.793 26.9502 152.406 26.7953 152.096 26.4855C151.787 26.1758 151.632 25.7111 151.632 25.169V19.903C151.632 19.2834 151.787 18.8188 152.174 18.509C152.561 18.1218 153.026 17.9669 153.568 17.9669H157.595V19.2834H155.039C154.652 19.2834 154.497 19.5932 154.497 20.1353V21.9165H157.285V23.1555H157.363Z" fill="white"/>
<path d="M165.106 23.1555H162.318V25.0141C162.318 25.4014 162.551 25.6337 163.015 25.6337H165.494V26.9502H161.079C160.615 26.9502 160.228 26.7953 159.918 26.4855C159.608 26.1758 159.453 25.7111 159.453 25.169V19.903C159.453 19.2834 159.608 18.8188 159.995 18.509C160.382 18.1218 160.847 17.9669 161.389 17.9669H165.416V19.2834H162.861C162.473 19.2834 162.318 19.5932 162.318 20.1353V21.9165H165.106V23.1555Z" fill="white"/>
<path d="M167.042 17.9669H171.611C172.386 17.9669 173.082 18.1992 173.702 18.7413C174.244 19.206 174.554 19.903 174.554 20.7548C174.554 21.3744 174.399 21.839 174.167 22.2262C173.934 22.6134 173.47 22.8458 172.928 23.0007L175.483 26.9502H172.231L170.217 22.536C170.759 22.536 171.146 22.3811 171.379 22.0713C171.611 21.7616 171.689 21.3744 171.689 20.8323C171.689 20.3676 171.534 19.9804 171.301 19.6706C171.069 19.3609 170.682 19.206 170.295 19.206H169.985V26.9502H167.042V17.9669Z" fill="white"/>
<path d="M179.897 14.4044C179.897 14.7916 179.742 15.1789 179.432 15.4886C179.122 15.7984 178.813 15.9533 178.425 15.9533C178.038 15.9533 177.651 15.7984 177.419 15.4886C177.109 15.1789 176.954 14.7916 176.954 14.4044C176.954 14.0172 177.109 13.63 177.419 13.3202C177.729 13.0105 178.038 12.8556 178.425 12.8556C178.813 12.8556 179.122 13.0105 179.432 13.3202C179.742 13.5526 179.897 13.9398 179.897 14.4044ZM176.954 17.9668H179.897V26.95H176.954V17.9668Z" fill="white"/>
<path d="M188.803 25.5562C188.803 26.0209 188.726 26.4081 188.649 26.6404C188.494 26.9502 188.184 27.1051 187.719 27.1051C187.177 27.1051 186.79 26.8728 186.48 26.3307L183.383 21.2195V26.9502H181.911V19.5932C181.911 19.1286 181.989 18.7413 182.143 18.509C182.376 18.1218 182.84 17.9669 183.383 17.9669C183.77 17.9669 184.157 18.0444 184.389 18.2767C184.622 18.4316 184.854 18.7413 185.086 19.1285L187.177 22.536V17.9669H188.649V25.5562H188.803Z" fill="white"/>
<path d="M197.554 20.7548C197.167 20.1353 196.935 19.7481 196.702 19.5932C196.392 19.2834 195.928 19.1285 195.463 19.1285C194.998 19.1285 194.611 19.3609 194.224 19.9029C193.837 20.5225 193.605 21.3743 193.605 22.4585C193.605 23.5427 193.759 24.3946 193.992 24.9367C194.301 25.4788 194.766 25.7885 195.386 25.7885C195.695 25.7885 196.005 25.7111 196.315 25.5562C196.547 25.4013 196.78 25.169 196.935 24.9367V22.3811H199.877V30.9772H196.935V26.563C196.702 26.6404 196.392 26.7953 196.005 26.8727C195.618 26.9502 195.308 26.9502 195.076 26.9502C193.682 26.9502 192.598 26.563 191.746 25.7885C190.894 25.0141 190.507 23.9299 190.507 22.536C190.507 21.2195 190.894 20.0578 191.668 19.1285C192.443 18.1992 193.45 17.812 194.766 17.812C195.618 17.812 196.392 17.9669 197.012 18.3541C197.554 18.6639 198.096 19.1285 198.638 19.8255L197.554 20.7548Z" fill="white"/>
<path d="M216.76 17.4247C215.986 16.4179 215.521 15.7984 215.212 15.5661C214.592 15.024 213.818 14.7917 212.966 14.7917C211.727 14.7917 210.797 15.4112 210.178 16.5728C209.713 17.5021 209.481 18.6638 209.481 20.1352C209.481 21.6066 209.713 22.7682 210.178 23.6975C210.797 24.8591 211.649 25.4787 212.966 25.4787C214.05 25.4787 214.902 25.2463 215.599 24.7042C216.141 24.317 216.683 23.6201 217.148 22.6133L218.619 23.6975C217.999 24.9366 217.225 25.8659 216.218 26.408C215.212 26.9501 213.972 27.2598 212.578 27.2598C210.488 27.2598 208.784 26.6403 207.467 25.2463C206.151 23.9298 205.531 22.2261 205.531 20.1352C205.531 18.0442 206.228 16.3405 207.545 15.024C208.861 13.7075 210.565 13.0105 212.578 13.0105C213.972 13.0105 215.134 13.2428 215.986 13.7075C216.76 14.1721 217.535 14.9465 218.309 16.0307L216.76 17.4247Z" fill="white"/>
<path d="M224.039 17.8895C225.279 17.8895 226.363 18.3542 227.215 19.206C228.066 20.0579 228.531 21.1421 228.531 22.4586C228.531 23.6977 228.066 24.7819 227.215 25.7112C226.363 26.563 225.279 27.0277 224.039 27.0277C222.8 27.0277 221.716 26.563 220.864 25.7112C220.013 24.8593 219.548 23.7751 219.548 22.4586C219.548 21.2195 220.013 20.1353 220.864 19.206C221.794 18.3542 222.8 17.8895 224.039 17.8895ZM224.039 26.0209C224.582 26.0209 224.969 25.6337 225.201 24.9368C225.356 24.3947 225.433 23.6202 225.433 22.536C225.433 21.4519 225.356 20.6 225.201 20.1353C224.969 19.4384 224.582 19.0512 224.039 19.0512C223.497 19.0512 223.11 19.4384 222.878 20.1353C222.723 20.6774 222.646 21.4519 222.646 22.536C222.646 23.6202 222.723 24.4721 222.878 24.9368C223.11 25.6337 223.497 26.0209 224.039 26.0209Z" fill="white"/>
<path d="M233.022 25.4786C233.022 25.9433 232.867 26.3305 232.557 26.6403C232.248 26.95 231.86 27.1049 231.396 27.1049C230.931 27.1049 230.544 26.95 230.234 26.6403C229.924 26.3305 229.77 25.9433 229.77 25.4786C229.77 25.014 229.924 24.5493 230.234 24.2396C230.544 23.9298 230.931 23.7749 231.396 23.7749C231.86 23.7749 232.248 23.9298 232.557 24.317C232.867 24.6268 233.022 25.014 233.022 25.4786Z" fill="white"/>
<path d="M239.295 13.5526H243.012V25.0915H247.891V26.9501H239.372V13.5526H239.295Z" fill="white"/>
<path d="M246.886 17.9669H254.398V19.5158H252.152V26.9502H249.209V19.5158H246.963V17.9669H246.886Z" fill="white"/>
<path d="M264 12.4684V26.9501H259.276C258.037 26.9501 257.108 26.5629 256.334 25.8659C255.559 25.0915 255.172 24.0847 255.172 22.6908C255.172 21.1419 255.637 19.9803 256.566 19.1285C257.495 18.354 258.657 17.8894 260.206 17.8894H261.135V12.391H264V12.4684ZM261.057 19.2059H260.593C259.818 19.2059 259.199 19.4382 258.812 19.9803C258.424 20.445 258.27 21.2968 258.27 22.4585C258.27 23.3878 258.424 24.2396 258.812 24.7817C259.199 25.4013 259.741 25.711 260.515 25.711H261.057V19.2059Z" fill="white"/>
<path d="M39.1312 21.0644C39.1312 30.8221 31.1546 38.7987 21.3195 38.7987C11.4843 38.7987 3.50781 30.8221 3.50781 21.0644C3.50781 11.3067 11.4843 3.3302 21.3195 3.3302C31.1546 3.3302 39.1312 11.2293 39.1312 21.0644Z" fill="#171717"/>
<path d="M38.4355 21.0645C38.4355 11.694 30.7687 4.02722 21.3208 4.02722C11.8728 4.02722 4.20605 11.6165 4.20605 21.0645C4.20605 21.0645 4.20605 21.0645 4.20605 21.1419L38.4355 21.0645Z" fill="#171717"/>
<path d="M3.89648 21.3743V21.1419C3.89648 21.1419 3.89648 21.1419 3.89648 21.0645C3.89648 11.5391 11.7181 3.79492 21.3209 3.79492C30.9238 3.79492 38.7454 11.5391 38.7454 21.0645V21.1419V21.3743H3.89648ZM38.2033 20.8322C38.0484 11.694 30.614 4.25957 21.3209 4.25957C12.1053 4.25957 4.59346 11.694 4.43858 20.8322H38.2033Z" fill="#171717"/>
<path d="M9.62582 18.3538L6.29581 17.502L5.98604 18.8185L5.28906 18.5862L6.21837 15.1787L6.91534 15.3336L6.60558 16.6501L9.93559 17.502L9.62582 18.3538Z" fill="white"/>
<path d="M11.4079 14.0947L8.3877 11.3068L10.6335 8.90613L11.1756 9.37078L9.54933 11.1519L10.2463 11.7715L11.7951 10.1452L12.3372 10.6099L10.7884 12.2361L11.6403 13.0106L13.344 11.1519L13.8861 11.6166L11.4079 14.0947Z" fill="white"/>
<path d="M15.5112 10.3775L16.2857 7.82187L14.3496 6.42791L15.3564 6.11815L16.5954 6.97001L17.0601 5.49861L18.0668 5.18884L17.3698 7.5121L19.5382 9.06095L18.454 9.44816L17.0601 8.44141L16.518 10.0677L15.5112 10.3775Z" fill="white"/>
<path d="M21.707 7.6668L22.6363 7.74424C22.6363 7.97656 22.7138 8.20889 22.8687 8.36377C23.0235 8.51866 23.1784 8.5961 23.4882 8.67354C23.798 8.75098 24.0303 8.67354 24.1852 8.5961C24.3401 8.51866 24.4175 8.36377 24.495 8.28633C24.495 8.20889 24.4949 8.13145 24.4175 8.05401C24.3401 7.97656 24.2626 7.89912 24.1077 7.82168C24.0303 7.74424 23.798 7.66679 23.4108 7.51191C22.9461 7.35703 22.6363 7.1247 22.4815 6.96982C22.2491 6.73749 22.1717 6.42772 22.2491 6.11795C22.2491 5.88563 22.404 5.73074 22.5589 5.57586C22.7138 5.42097 22.9461 5.34353 23.1784 5.26609C23.4108 5.18865 23.7205 5.18865 24.1077 5.26609C24.6498 5.34353 25.037 5.57586 25.3468 5.80818C25.5791 6.04051 25.6566 6.42772 25.6566 6.73749L24.7273 6.58261C24.7273 6.35028 24.6498 6.1954 24.5724 6.11795C24.4949 6.04051 24.2626 5.96307 24.0303 5.88563C23.798 5.80818 23.5656 5.88563 23.4108 5.96307C23.3333 6.04051 23.2559 6.11795 23.2559 6.19539C23.2559 6.27284 23.2559 6.35028 23.3333 6.42772C23.4108 6.50516 23.7205 6.66005 24.1077 6.81493C24.495 6.96981 24.8047 7.1247 25.037 7.27958C25.2694 7.43447 25.3468 7.58935 25.4243 7.74424C25.5017 7.97656 25.5017 8.13145 25.5017 8.44122C25.4243 8.67354 25.3468 8.90587 25.1919 9.06075C25.037 9.21564 24.8047 9.37052 24.495 9.44796C24.1852 9.5254 23.8754 9.5254 23.4882 9.44796C22.9461 9.37052 22.4815 9.13819 22.2491 8.90587C21.7845 8.51866 21.707 8.13145 21.707 7.6668Z" fill="white"/>
<path d="M30.6118 13.1653L29.8374 12.5458L30.1472 11.539L28.7532 10.3774L27.9014 10.8421L27.127 10.2225L31.0765 8.13159L31.8509 8.75113L30.6118 13.1653ZM30.3795 10.9195L30.8442 9.37066L29.4502 10.1451L30.3795 10.9195Z" fill="white"/>
<path d="M33.0124 14.4046L33.3997 15.179C33.1673 15.3339 33.0124 15.4888 33.0124 15.7211C32.935 15.9534 33.0124 16.1083 33.0899 16.4181C33.1673 16.6504 33.3222 16.8827 33.4771 16.9602C33.632 17.0376 33.7869 17.0376 33.9417 17.0376C34.0192 17.0376 34.0966 16.9602 34.0966 16.8827C34.1741 16.8053 34.1741 16.6504 34.1741 16.4955C34.1741 16.4181 34.0966 16.1083 34.0966 15.7211C34.0192 15.2564 34.0192 14.8692 34.0966 14.6369C34.1741 14.3271 34.4064 14.0948 34.7162 13.9399C34.9485 13.8625 35.1034 13.8625 35.3357 13.9399C35.568 14.0174 35.7229 14.0948 35.9552 14.3271C36.1101 14.482 36.265 14.7918 36.4199 15.1015C36.6522 15.6436 36.6522 16.0309 36.5748 16.4181C36.4973 16.8053 36.265 17.0376 35.8778 17.1925L35.4131 16.2632C35.568 16.1857 35.7229 16.0309 35.7229 15.876C35.8004 15.7211 35.7229 15.5662 35.6455 15.2564C35.568 15.0241 35.4131 14.8692 35.2583 14.7143C35.1808 14.6369 35.0259 14.6369 34.9485 14.7143C34.871 14.7143 34.7936 14.7918 34.7936 14.9467C34.7162 15.1015 34.7936 15.4113 34.871 15.7985C34.9485 16.2632 34.9485 16.5729 34.9485 16.8053C34.9485 17.0376 34.871 17.2699 34.7162 17.4248C34.5613 17.5797 34.4064 17.7346 34.1741 17.812C33.9417 17.8895 33.7094 17.8895 33.4771 17.8895C33.2448 17.812 33.0124 17.7346 32.8576 17.5023C32.7027 17.2699 32.4703 17.0376 32.3155 16.6504C32.0831 16.1083 32.0831 15.6436 32.1606 15.3339C32.3155 14.9467 32.6252 14.6369 33.0124 14.4046Z" fill="white"/>
<path d="M4.90234 23.4651L8.54212 22.6133L9.2391 25.4012L8.61956 25.5561L8.15491 23.4651L7.38049 23.62L7.84514 25.5561L7.22561 25.711L6.76095 23.7749L5.75421 24.0072L6.2963 26.1756L5.59932 26.3305L4.90234 23.4651Z" fill="white"/>
<path d="M6.21777 27.8792L9.47034 26.0206L9.85755 26.7176L8.46359 29.3506L10.632 28.1116L11.0192 28.7311L7.76661 30.5897L7.3794 29.8927L8.69592 27.3371L6.52754 28.5762L6.21777 27.8792Z" fill="white"/>
<path d="M11.1744 32.2162L11.6391 31.7515L12.8781 32.9132L11.8714 33.9974C11.6391 33.9974 11.4067 33.9199 11.097 33.8425C10.7872 33.6876 10.4774 33.5327 10.2451 33.3004C9.93533 32.9906 9.703 32.7583 9.62556 32.3711C9.54811 32.0613 9.47067 31.7515 9.62556 31.3643C9.703 31.0546 9.85788 30.7448 10.1677 30.5125C10.4 30.2027 10.7097 30.0478 11.097 29.8929C11.4067 29.8155 11.7939 29.8155 12.1037 29.8929C12.336 29.9704 12.6458 30.1252 12.9556 30.3576C13.3428 30.6673 13.4977 30.9771 13.5751 31.3643C13.6525 31.6741 13.5751 31.9839 13.4202 32.2936L12.7232 31.9064C12.8007 31.7515 12.8007 31.5192 12.8007 31.3643C12.7232 31.2094 12.6458 31.0546 12.4909 30.8997C12.2586 30.6673 11.9488 30.5899 11.6391 30.5899C11.3293 30.5899 11.0195 30.7448 10.7872 31.0546C10.4774 31.3643 10.3225 31.6741 10.3225 31.9839C10.3225 32.2936 10.4774 32.526 10.7097 32.7583C10.8646 32.8357 10.9421 32.9906 11.1744 32.9906C11.3293 33.068 11.4842 33.068 11.6391 33.1455L11.9488 32.7583L11.1744 32.2162Z" fill="white"/>
<path d="M12.7246 35.0815L14.5832 31.829L15.2802 32.2162L13.4216 35.4688L12.7246 35.0815Z" fill="white"/>
<path d="M14.7373 36.2431L15.8989 32.6808L16.6734 32.9131L17.4478 35.7785L18.2222 33.3778L18.9192 33.6101L17.7575 37.1724L16.9831 36.9401L16.2087 34.1522L15.4343 36.4754L14.7373 36.2431Z" fill="white"/>
<path d="M19.5391 37.4047L19.6165 33.6875L22.5593 33.7649V34.3845L20.4684 34.307V35.1589L22.4819 35.2363V35.8559L20.5458 35.7784V36.7852L22.7142 36.8626V37.4822L19.5391 37.4047Z" fill="white"/>
<path d="M24.109 37.3272L23.1797 33.6875L25.9676 32.9905L26.1225 33.61L24.109 34.0747L24.3413 34.8491L26.2774 34.3844L26.4323 35.004L24.4962 35.4686L24.7285 36.4754L26.8969 35.9333L27.0518 36.5528L24.109 37.3272Z" fill="white"/>
<path d="M28.521 35.9333L26.585 32.7582L28.0564 31.9063C28.4436 31.674 28.6759 31.5966 28.9082 31.5191C29.1405 31.4417 29.2954 31.5191 29.4503 31.5966C29.6052 31.674 29.7601 31.8289 29.915 31.9838C30.0699 32.2161 30.0699 32.4484 30.0699 32.6808C29.9924 32.9131 29.8375 33.1454 29.6052 33.3777C29.8375 33.3777 29.9924 33.3777 30.1473 33.4552C30.3022 33.5326 30.5345 33.6101 30.8443 33.765L31.6187 34.1522L30.7668 34.6168L29.8375 34.2296C29.5278 34.0747 29.2954 33.9973 29.218 33.9973C29.1406 33.9973 28.9857 33.9973 28.9082 33.9973C28.8308 33.9973 28.6759 34.0747 28.521 34.1522L28.3661 34.2296L29.1406 35.5461L28.521 35.9333ZM28.0564 33.6875L28.5985 33.3777C28.9082 33.1454 29.1406 33.068 29.218 32.9905C29.2954 32.9131 29.2954 32.8357 29.2954 32.7582C29.2954 32.6808 29.2954 32.6033 29.218 32.4484C29.1406 32.371 29.0631 32.2936 28.9857 32.2161C28.9082 32.2161 28.7533 32.2161 28.6759 32.2161C28.5985 32.2161 28.4436 32.371 28.1338 32.5259L27.5917 32.8357L28.0564 33.6875Z" fill="white"/>
<path d="M32.3163 33.3004L29.7607 30.5899L30.3803 30.0479L32.9359 32.7583L32.3163 33.3004Z" fill="white"/>
<path d="M33.9434 31.674L30.8457 29.5057L31.3104 28.8861L34.3306 28.9636L32.2397 27.5696L32.6269 26.9501L35.7246 29.1184L35.2599 29.738H32.3945L34.408 31.1319L33.9434 31.674Z" fill="white"/>
<path d="M35.8019 25.4013L35.1824 25.2464L35.647 23.6201L37.1184 24.0848C37.1959 24.3171 37.2733 24.5494 37.2733 24.8592C37.2733 25.169 37.2733 25.4788 37.1959 25.7885C37.041 26.1757 36.8861 26.4855 36.6538 26.7178C36.4215 26.9502 36.1117 27.105 35.8019 27.1825C35.4922 27.2599 35.1049 27.1825 34.7952 27.105C34.408 27.0276 34.0982 26.7953 33.8659 26.5629C33.6335 26.3306 33.4787 26.0208 33.4012 25.6336C33.3238 25.3239 33.4012 25.0141 33.4787 24.7043C33.6335 24.2397 33.8659 23.9299 34.0982 23.6976C34.3305 23.4653 34.6403 23.3878 35.0275 23.3878L34.9501 24.1622C34.7952 24.1622 34.5628 24.2397 34.408 24.3171C34.2531 24.3946 34.1756 24.6269 34.0982 24.7818C34.0208 25.0915 34.0208 25.4013 34.1756 25.6336C34.3305 25.866 34.5628 26.0983 34.9501 26.1757C35.4147 26.3306 35.7245 26.3306 36.0342 26.1757C36.344 26.0209 36.4989 25.7885 36.5763 25.4788C36.6538 25.3239 36.6538 25.169 36.6538 24.9367C36.6538 24.7818 36.5763 24.6269 36.5763 24.472L36.1117 24.3171L35.8019 25.4013Z" fill="white"/>
<path d="M3.97266 21.4516V20.7546H38.7441V21.4516H3.97266Z" fill="white"/>
<path d="M23.4108 0H19.3838V3.71722H23.4108V0Z" fill="white"/>
<path d="M16.2084 4.41421L12.4912 6.0405L10.9424 2.5556L14.6596 0.929321L16.2084 4.41421Z" fill="white"/>
<path d="M9.85776 7.89909L7.14729 10.8419L4.35938 8.2863L7.06985 5.34351L9.85776 7.89909Z" fill="white"/>
<path d="M5.44399 13.6299L4.20491 17.4246L0.642578 16.1855L1.88165 12.3909L5.44399 13.6299Z" fill="white"/>
<path d="M3.70123 20.5963L0 20.9408L0.373216 24.9505L4.07445 24.606L3.70123 20.5963Z" fill="white"/>
<path d="M5.05628 27.6467L7.06977 31.2091L3.73976 32.9902L1.80371 29.5053L5.05628 27.6467Z" fill="white"/>
<path d="M9.16184 33.6099L12.4144 36.0106L10.0911 39.0308L6.91602 36.6301L9.16184 33.6099Z" fill="white"/>
<path d="M15.2806 37.4045L19.2301 38.3338L18.3783 41.9736L14.4287 41.0443L15.2806 37.4045Z" fill="white"/>
<path d="M22.4814 38.4888L26.431 37.7144L27.128 41.3541L23.1784 42.1286L22.4814 38.4888Z" fill="white"/>
<path d="M29.4512 36.4753L32.7812 34.2295L34.8721 37.3272L31.5421 39.573L29.4512 36.4753Z" fill="white"/>
<path d="M35.0264 31.9063L37.1173 28.4989L40.3699 30.5124L38.2015 33.9198L35.0264 31.9063Z" fill="white"/>
<path d="M38.2793 25.4785L38.8214 21.5289L42.5386 22.071L41.9965 26.0206L38.2793 25.4785Z" fill="white"/>
<path d="M38.6655 18.2764L37.5039 14.4818L41.1437 13.3976L42.2279 17.2697L38.6655 18.2764Z" fill="white"/>
<path d="M36.0331 11.6164L33.4775 8.51874L36.3429 6.11804L38.9759 9.21572L36.0331 11.6164Z" fill="white"/>
<path d="M30.9227 6.50515L27.3604 4.72398L28.9866 1.31653L32.6264 3.17514L30.9227 6.50515Z" fill="white"/>
<path d="M32.7803 21.0643C32.7803 27.3371 27.6691 32.4483 21.3188 32.4483C15.046 32.4483 9.85742 27.3371 9.85742 21.0643C9.85742 14.7915 14.9686 9.6803 21.3188 9.6803C27.5917 9.6803 32.7803 14.7915 32.7803 21.0643Z" fill="white"/>
<path d="M19.2285 27.0274V26.795C19.6932 26.795 20.0029 26.7176 20.1578 26.6401C20.3127 26.5627 20.3901 26.3304 20.3901 26.0206V21.1418C20.3901 20.832 20.3127 20.5997 20.1578 20.5222C20.0029 20.4448 19.6932 20.3673 19.2285 20.3673V20.135H22.4811H26.7404V21.1418V22.1485H26.4306C26.3532 21.529 26.0434 21.0643 25.6562 20.832C25.269 20.5997 24.572 20.4448 23.7202 20.4448H23.1006C22.8683 20.4448 22.7134 20.5222 22.5585 20.5997C22.4811 20.6771 22.4036 20.832 22.4036 20.9869V23.3101H22.636C23.2555 23.3101 23.6427 23.1552 23.9525 22.9229C24.2622 22.6906 24.4171 22.3034 24.4946 21.7613H24.8043V23.465V25.1687H24.4946C24.4171 24.6266 24.1848 24.162 23.9525 23.9297C23.6427 23.6973 23.2555 23.5425 22.636 23.5425H22.4036V26.0206C22.4036 26.2529 22.4811 26.4078 22.5585 26.4853C22.7134 26.5627 22.8683 26.6401 23.1006 26.6401H23.4104C24.3397 26.6401 25.0367 26.4853 25.5788 26.2529C26.1209 25.9432 26.5855 25.4785 26.8953 24.859H27.2825L27.0502 25.9432L26.8178 27.0274H22.4811H19.2285Z" fill="#171717"/>
<path d="M22.4814 27.1822H19.2288V27.1047H19.3062H19.2288V27.1822H19.1514V27.1047V26.8724C19.1514 26.795 19.2288 26.795 19.2288 26.795C19.6935 26.795 20.0032 26.7175 20.0807 26.6401C20.1581 26.5626 20.2356 26.4077 20.2356 26.098V21.2191C20.2356 20.9094 20.1581 20.7545 20.0807 20.677C20.0032 20.5996 19.6935 20.5221 19.2288 20.5221C19.1514 20.5221 19.1514 20.4447 19.1514 20.4447V20.1349V20.0575H19.2288H22.4814H26.7407H26.8181V20.1349V21.1417V22.1484V22.2259H26.7407H26.4309C26.3535 22.2259 26.3535 22.2259 26.3535 22.1484C26.276 21.5289 26.0437 21.1417 25.6565 20.9094C25.2693 20.677 24.6498 20.5221 23.7205 20.5221H23.1009C22.8686 20.5221 22.7137 20.5996 22.6363 20.5996C22.5588 20.677 22.5588 20.7545 22.5588 20.9094V23.2326H22.6363C23.2558 23.2326 23.643 23.1552 23.8753 22.9228C24.1077 22.6905 24.34 22.3808 24.4174 21.8387C24.4174 21.7612 24.4949 21.7612 24.4949 21.7612H24.8046H24.8821V21.8387V23.5424V25.2461V25.3236H24.8046H24.4949C24.4174 25.3236 24.4174 25.3236 24.4174 25.2461C24.34 24.704 24.1851 24.3168 23.8753 24.0845C23.643 23.8522 23.1784 23.7747 22.6363 23.7747H22.5588V26.098C22.5588 26.2529 22.6363 26.4077 22.7137 26.4852C22.7911 26.5626 22.946 26.6401 23.2558 26.6401H23.5656C24.4949 26.6401 25.1918 26.4852 25.6565 26.2529C26.1986 26.0205 26.5858 25.5559 26.8956 24.9363L26.973 24.8589H27.3602C27.3602 24.8589 27.4377 24.8589 27.4377 24.9363V25.0138L27.2053 26.098L26.8956 27.1047C26.8956 27.1822 26.8181 27.1822 26.8181 27.1822H22.4814ZM22.4814 26.9498H26.7407L26.973 25.9431L27.2053 25.0138H27.0505C26.7407 25.6333 26.276 26.098 25.7339 26.4077C25.1918 26.7175 24.4174 26.795 23.4881 26.8724H23.1784C22.8686 26.8724 22.7137 26.795 22.5588 26.7175C22.4039 26.5626 22.3265 26.3303 22.3265 26.098V23.6198V23.5424H22.4039H22.6363C23.2558 23.5424 23.7204 23.6973 24.0302 23.9296C24.34 24.1619 24.4949 24.5491 24.6498 25.0912H24.8046V23.4649V21.8387H24.6498C24.5723 22.3808 24.34 22.768 24.0302 23.0003C23.7204 23.2326 23.2558 23.3875 22.6363 23.3875H22.4039H22.3265V23.3101V20.9868C22.3265 20.7545 22.4039 20.5996 22.4814 20.5221C22.6363 20.4447 22.7911 20.3673 23.1009 20.3673H23.643C24.5723 20.3673 25.1918 20.5221 25.6565 20.7545C26.1212 20.9868 26.3535 21.4515 26.4309 22.071H26.5858V21.1417V20.2124H22.4039H19.2288V20.2898C19.616 20.2898 19.9258 20.3673 20.0807 20.5221C20.2356 20.677 20.313 20.9094 20.313 21.2191V26.098C20.313 26.4077 20.2356 26.6401 20.0807 26.795C19.9258 26.8724 19.616 26.9498 19.2288 27.0273V27.1047H22.4814V26.9498Z" fill="#171717"/>
<path d="M19.0737 25.7885V15.4887H18.9962C17.6797 15.4887 16.2858 15.7211 15.6662 16.2632C15.0467 16.8052 14.6595 17.2699 14.5046 18.509L13.8076 18.1218L13.8851 16.1083V14.0173H20.3902H26.8953V16.0308L26.9728 18.1218L26.1983 18.509C26.0435 17.2699 25.6563 16.8052 25.0367 16.2632C24.4172 15.7211 22.9458 15.4887 21.7067 15.4887H21.6293V25.7885C21.6293 26.4081 22.0939 26.8727 22.3262 27.0276C22.5586 27.2599 22.5586 27.2599 23.4879 27.3374V28.3441H20.3902H17.2925V27.3374C17.9895 27.1825 18.0669 27.1825 18.2993 27.0276C18.5316 26.7953 19.0737 26.3306 19.0737 25.7885Z" fill="#171717"/>
<path d="M20.3905 28.4989H17.2154V27.2599H17.2928C17.9898 27.0275 18.0672 27.105 18.2995 26.9501C18.5319 26.7178 19.074 26.3306 19.074 25.7885V15.5661C17.8349 15.5661 16.3635 15.8759 15.8214 16.3405C15.2019 16.8826 14.8921 17.3473 14.6598 18.5089V18.6638L13.7305 18.1217L13.8079 16.0308V13.9398H20.4679H26.9731V16.1082L27.0505 18.2766L26.1212 18.8187V18.6638C25.9663 17.4247 25.5791 16.9601 24.9596 16.4954C24.4175 16.0308 22.9461 15.721 21.707 15.721V25.9433C21.707 26.4854 22.0942 26.9501 22.404 27.105C22.7137 27.3373 22.5589 27.3373 23.4882 27.4147H23.5656V28.6538H20.3905V28.4989ZM17.3702 28.2666H20.3905H23.3333V27.4922C22.5589 27.4147 22.4814 27.3373 22.2491 27.1824C21.9393 26.9501 21.4747 26.4854 21.4747 25.7885V15.3338H21.5521H21.6296C22.9461 15.3338 24.4175 15.5661 25.037 16.1856C25.6565 16.7277 26.0438 17.1924 26.1986 18.354L26.6633 18.0442L26.5859 16.0308V14.0947H20.2356H13.8079V16.0308L13.7305 18.0442L14.1951 18.354C14.35 17.1924 14.8147 16.7277 15.3568 16.1856C16.0537 15.6435 17.4477 15.3338 18.7642 15.3338H19.2289V25.7885C19.2289 26.4854 18.6868 26.9501 18.377 27.105C18.0672 27.3373 17.9898 27.2599 17.3702 27.4147V28.2666Z" fill="white"/>
<path d="M2.88867 21.0642C2.88867 10.9193 11.175 2.71045 21.3199 2.71045C31.5422 2.71045 39.7511 10.9193 39.7511 21.0642C39.7511 31.2091 31.4648 39.418 21.3199 39.418C11.0975 39.418 2.88867 31.2091 2.88867 21.0642ZM4.0503 21.0642C4.0503 30.5121 11.7945 38.1789 21.3199 38.1789C30.8453 38.1789 38.512 30.5121 38.5895 21.0642C38.5895 11.6163 30.8453 3.94952 21.3199 3.94952C11.7945 3.94952 4.0503 11.6163 4.0503 21.0642Z" fill="white"/>
</svg>
