<?xml version="1.0" standalone="no"?>
<!DOCTYPE svg PUBLIC "-//W3C//DTD SVG 20010904//EN"
 "http://www.w3.org/TR/2001/REC-SVG-20010904/DTD/svg10.dtd">
<svg version="1.0" xmlns="http://www.w3.org/2000/svg"
 width="700.000000pt" height="700.000000pt" viewBox="0 0 700.000000 700.000000"
 preserveAspectRatio="xMidYMid meet">
<metadata>
Created by potrace 1.14, written by Peter Selinger 2001-2017
</metadata>
<g transform="translate(0.000000,700.000000) scale(0.100000,-0.100000)"
fill="#000000" stroke="none">
<path d="M3190 6765 l0 -235 -27 -1 c-16 0 -37 -2 -48 -4 -11 -2 -40 -7 -65
-10 -73 -10 -229 -43 -342 -74 l-105 -28 -38 86 c-21 47 -50 113 -65 146 -15
33 -40 90 -56 128 -15 37 -32 67 -36 67 -12 0 -422 -181 -433 -191 -5 -5 -14
-9 -21 -9 -6 0 -43 -15 -82 -33 l-71 -33 14 -29 c8 -17 50 -113 95 -215 75
-172 79 -186 63 -198 -10 -8 -61 -41 -113 -75 -53 -34 -114 -75 -135 -92 -59
-44 -199 -158 -205 -167 -3 -4 -17 3 -32 15 -22 19 -187 170 -253 232 -12 11
-33 30 -47 43 l-25 23 -149 -163 c-82 -90 -165 -181 -185 -203 -21 -22 -54
-58 -74 -80 l-36 -40 73 -70 c41 -38 118 -111 173 -161 l98 -91 -55 -79 c-64
-91 -148 -233 -208 -352 -50 -98 -27 -95 -225 -24 -295 105 -269 100 -277 60
-3 -13 -46 -149 -97 -303 -50 -155 -91 -286 -91 -291 0 -6 6 -11 13 -11 6 -1
77 -24 157 -53 80 -28 165 -58 190 -67 62 -21 82 -32 75 -44 -7 -10 -7 -10
-29 -144 -24 -151 -37 -272 -38 -373 -1 -35 -6 -59 -12 -59 -33 -2 -194 -16
-209 -18 -16 -4 -149 -15 -222 -20 -27 -2 -30 -5 -29 -36 3 -56 15 -212 19
-244 4 -30 11 -102 20 -220 7 -85 16 -159 21 -167 3 -4 12 -5 22 -3 17 3 136
15 202 20 19 2 71 6 115 11 143 13 124 27 160 -121 17 -71 55 -198 83 -281 56
-164 56 -164 43 -164 -8 0 -129 -67 -181 -100 -8 -5 -51 -30 -95 -54 -131 -74
-125 -58 -64 -167 28 -52 66 -119 82 -149 53 -97 180 -325 183 -328 1 -2 26
10 56 26 29 16 85 46 123 67 39 21 95 52 125 69 104 59 106 60 132 23 58 -82
195 -245 277 -330 42 -43 77 -81 79 -86 1 -4 -58 -90 -133 -191 -106 -145
-132 -187 -123 -196 24 -22 491 -376 502 -380 6 -2 74 79 151 180 108 143 142
182 152 174 37 -30 317 -169 441 -218 64 -25 81 -36 78 -49 -5 -15 -15 -58
-77 -321 -11 -47 -22 -90 -24 -97 -3 -9 91 -38 190 -58 11 -2 106 -24 210 -50
253 -61 255 -61 256 -36 2 24 3 29 12 56 3 11 8 31 11 45 2 14 19 88 36 165
31 134 44 170 59 161 19 -12 178 -21 368 -21 l212 0 7 -40 c11 -69 15 -87 30
-160 8 -38 18 -89 21 -113 3 -23 11 -63 17 -90 10 -37 17 -47 32 -45 30 3 74
11 149 27 39 8 84 17 100 20 17 2 77 14 135 26 58 12 119 24 135 26 109 18
113 23 95 99 -5 22 -12 56 -15 75 -3 19 -14 78 -24 130 -11 52 -22 111 -25
131 l-6 36 67 23 c114 38 262 98 378 154 l110 52 98 -145 c54 -80 110 -165
125 -188 15 -24 31 -43 35 -43 7 0 153 96 167 110 3 3 68 47 145 99 77 52 161
109 186 128 l47 33 -129 192 -129 193 32 28 c109 95 285 279 348 365 13 17 28
32 33 32 5 0 94 -54 197 -120 103 -66 190 -120 193 -120 11 0 363 559 356 564
-2 1 -93 58 -201 125 l-198 123 24 46 c39 79 112 271 146 387 33 110 46 139
60 130 11 -7 431 -67 436 -62 6 6 13 41 19 102 3 28 10 75 15 105 5 30 11 78
14 105 3 28 8 59 10 70 2 12 7 48 11 80 4 33 9 67 10 75 2 8 6 38 9 66 7 47 6
50 -16 51 -13 0 -39 3 -58 7 -19 3 -80 12 -135 21 -203 29 -239 35 -241 38 -1
1 -4 88 -8 192 -3 105 -8 206 -11 225 -2 19 -7 55 -10 80 -3 25 -8 57 -11 71
-4 23 0 28 33 41 21 9 56 19 78 23 22 4 46 11 53 17 6 6 12 8 12 5 0 -5 258
68 265 75 2 2 -9 49 -24 103 -26 89 -104 372 -134 480 -5 22 -14 44 -17 48 -4
5 -105 -21 -225 -57 -119 -36 -221 -63 -226 -60 -5 3 -9 12 -9 20 0 33 -166
357 -244 475 l-17 27 178 147 c98 81 179 150 181 154 1 4 -6 16 -15 27 -30 33
-113 132 -253 299 -74 88 -140 166 -147 173 -11 12 -33 -3 -131 -84 -64 -54
-121 -102 -127 -108 -5 -6 -32 -28 -58 -50 -55 -44 -37 -49 -137 41 -102 92
-223 188 -318 252 l-63 42 105 204 c72 142 101 207 93 212 -7 4 -39 21 -72 38
-33 17 -162 84 -288 149 l-227 118 -56 -119 c-31 -65 -76 -160 -100 -212 -37
-78 -47 -92 -61 -86 -24 10 -258 83 -286 89 -12 3 -60 14 -107 25 -47 10 -121
24 -165 31 -44 7 -87 14 -95 15 -8 2 -23 4 -32 4 -16 1 -17 20 -17 214 0 116
0 222 0 235 l-1 22 -330 0 -330 0 0 -235z"/>
</g>
</svg>
